#N canvas 0 0 1366 685 12;
#X obj -56 296 t f f;
#X obj 162 553 s fundamental;
#X obj -56 273 f;
#X obj 162 505 f;
#X obj -56 326 s presentChord;
#X floatatom 47 293 5 0 0 0 - - -;
#X floatatom 168 527 5 0 0 0 - - -;
#X obj 14 229 r chordType;
#X obj -296 325 expr $f1 \; if ($f1 < 12 \, 1 \, 0) \; if ($f1 > 11
&& $f1 <= 23 \, 2 \, 0) \; if ($f1 > 23 && $f1 <= 35 \, 3 \, 0);
#X obj -56 447 sel 1 2 3;
#X obj 162 482 - 12;
#X obj 87 333 expr $f1 \; if ($f1 < 12 \, $f1 \, 0) \; if ($f1 > 11
&& $f1 <= 23 \, $f1-12 \, 0) \; if ($f1 > 23 && $f1 <= 35 \, $f1-24
\, 0);
#X obj 162 427 pack f f f;
#X obj 162 454 expr $f1 + $f2 + $f3;
#X text 90 312 (0-11 = maj \, 12-23 = min \, 24-35 dominant);
#X msg -16 497 60 64 67 70;
#X msg -36 520 60 63 67 70;
#X msg -56 544 60 64 67 71;
#X obj 107 685 +;
#X obj 75 685 +;
#X obj 44 685 +;
#X floatatom 41 778 5 0 0 0 - - -;
#X floatatom 83 777 5 0 0 0 - - -;
#X floatatom 126 778 5 0 0 0 - - -;
#X obj 138 685 +;
#X obj -188 593 unpack f f f f;
#X obj -74 593 unpack f f f f;
#X obj 41 593 unpack f f f f;
#X floatatom 172 778 5 0 0 0 - - -;
#X obj 400 429 expr $f1 \; if ($f1 < 12 \, 2 \, 0) \; if ($f1 > 11
&& $f1 <= 23 \, 1 \, 0) \; if ($f1 > 23 && $f1 <= 35 \, 3 \, 0);
#X obj 503 523 pack f f f;
#X obj 503 575 * 12;
#X obj 503 550 expr $f1 + $f2 + $f3;
#X obj -728 210 cnv 15 400 60 empty empty desempaquetado 20 12 0 14
-204800 -66577 0;
#N canvas 778 354 324 185 IP 0;
#X obj 46 63 unpack f f f f f;
#X floatatom 44 117 3 0 0 0 - - -;
#X floatatom 94 117 3 0 0 0 - - -;
#X floatatom 145 117 3 0 0 0 - - -;
#X floatatom 195 117 3 0 0 0 - - -;
#X obj 45 12 inlet;
#X connect 0 0 1 0;
#X connect 0 1 2 0;
#X connect 0 2 3 0;
#X connect 0 3 4 0;
#X connect 5 0 0 0;
#X restore -558 155 pd IP;
#X obj -723 233 mrpeach/unpackOSC;
#X obj -729 273 cnv 15 400 180 empty empty mensajes 20 12 0 14 -204786
-66577 0;
#X floatatom -723 413 5 0 0 0 - - -;
#X obj -621 282 print;
#X obj -723 370 unpack 1 1 1 1;
#X obj -667 423 s chordType;
#X obj -527 390 s tempoFromProcessing;
#X floatatom -684 457 5 0 0 0 - - -;
#X floatatom -622 501 5 0 0 0 - - -;
#X obj -468 494 s bong;
#X obj 399 406 spigot;
#X obj 438 383 tgl 15 0 empty empty empty 17 7 0 10 -262144 -1 -1 1
1;
#X obj -161 807 - 12;
#X obj 44 733 - 0;
#X obj 75 733 - 0;
#X obj 107 733 - 0;
#X obj 138 733 - 0;
#X msg 199 701 12;
#X msg 234 701 24;
#X obj 199 678 bng 15 250 50 0 empty empty empty 17 7 0 10 -262144
-1 -1;
#X obj 234 678 bng 15 250 50 0 empty empty empty 17 7 0 10 -262144
-1 -1;
#X obj 199 646 loadbang;
#X text -12 758 by default \, this begins from C3;
#X floatatom -41 224 5 0 0 0 - - -;
#X obj -67 173 counter 35;
#X obj -67 761 bng 15 250 50 0 empty empty empty 17 7 0 10 -262144
-1 -1;
#X obj -66 198 % 36;
#X msg -314 208 15;
#X msg -270 209 16;
#X msg -222 206 0;
#X msg -173 208 12;
#X msg -126 205 24;
#X msg -232 476 maj;
#X msg -192 476 min;
#X msg -151 475 dom;
#X obj -231 509 symbol;
#X symbolatom -231 536 10 0 0 0 - - -;
#X msg -121 147 40;
#X obj -296 301 spigot;
#X obj -257 278 tgl 15 0 empty empty empty 17 7 0 10 -262144 -1 -1
1 1;
#X obj -622 764 metro;
#X floatatom -504 636 5 0 0 0 - - -;
#X obj 414 699 bng 15 250 50 0 empty empty empty 17 7 0 10 -262144
-1 -1;
#X floatatom 480 728 5 0 0 0 - - -;
#X obj -622 798 s metronomebang;
#X text 357 886 for framus channel framus channel;
#X text 388 870 ch1 : single midi notes;
#X text -24 907 ch2 : whole 7th chord notes for EAC or Piano;
#X text -183 894 ch3 : bass notes;
#X obj 361 677 bng 15 250 50 0 empty empty empty 17 7 0 10 -262144
-1 -1;
#X text 380 670 reset;
#X obj 332 678 bng 15 250 50 0 empty empty empty 17 7 0 10 -262144
-1 -1;
#X obj 503 602 + 24;
#X msg -631 545 0;
#X floatatom 331 752 5 0 0 0 - - -;
#X obj 428 668 +;
#X obj 446 631 +;
#X obj 308 621 r metronomebang;
#X obj -593 616 expr 15000 / $f1;
#X obj 331 723 + 1;
#X obj -711 548 counter;
#X obj -711 572 sel 1;
#X obj -689 492 bng 15 250 50 0 empty empty empty 17 7 0 10 -262144
-1 -1;
#X obj -606 455 loadbang;
#X obj -594 589 * 0.75;
#X floatatom -674 612 5 0 0 0 - - -;
#X obj -433 459 sel 111;
#X msg -7 813 127;
#X obj -725 115 mrpeach/udpreceive 12000;
#X obj -390 547 tgl 15 0 empty empty empty 17 7 0 10 -262144 -1 -1
0 1;
#X obj -512 284 unpack f f f f f;
#X floatatom -514 338 3 0 0 0 - - -;
#X floatatom -464 338 3 0 0 0 - - -;
#X floatatom -413 338 3 0 0 0 - - -;
#X floatatom -363 338 3 0 0 0 - - -;
#X obj -469 420 bng 15 250 50 0 empty empty empty 17 7 0 10 -262144
-1 -1;
#X obj 331 700 counter 15;
#X obj -685 732 bng 15 250 50 0 empty empty empty 17 7 0 10 -262144
-1 -1;
#X msg -562 720 150;
#X obj 248 961 gate 16;
#X obj 448 803 makenote 40 200;
#X obj 447 829 noteout 2;
#X obj 425 760 gate 16;
#X obj 40 850 makenote 70 400;
#X obj -161 866 noteout 3;
#X obj -161 833 makenote 0 400;
#X obj 40 875 noteout 1;
#X obj -352 911 makenote 70 400;
#X obj -352 936 noteout 5;
#X floatatom 339 955 5 0 0 0 - - -;
#X floatatom 170 942 5 0 0 0 - - -;
#X obj 120 968 gate 16;
#X obj 121 995 makenote 65 100;
#X obj 258 1030 noteout 3;
#X obj 120 1034 noteout 1;
#X obj -24 998 gate 16;
#X obj -20 1056 noteout 1;
#X floatatom 24 975 5 0 0 0 - - -;
#X obj 259 1002 makenote 70 100;
#X obj -24 1028 makenote 65 100;
#X connect 0 0 4 0;
#X connect 0 0 45 0;
#X connect 0 0 73 0;
#X connect 0 1 11 0;
#X connect 2 0 0 0;
#X connect 2 0 5 0;
#X connect 3 0 1 0;
#X connect 3 0 6 0;
#X connect 3 0 18 1;
#X connect 3 0 19 1;
#X connect 3 0 20 1;
#X connect 3 0 24 1;
#X connect 3 0 91 1;
#X connect 7 0 2 0;
#X connect 8 1 9 0;
#X connect 8 2 9 0;
#X connect 8 3 9 0;
#X connect 9 0 17 0;
#X connect 9 0 67 0;
#X connect 9 1 16 0;
#X connect 9 1 68 0;
#X connect 9 2 15 0;
#X connect 9 2 69 0;
#X connect 11 1 12 0;
#X connect 11 2 12 1;
#X connect 11 3 12 2;
#X connect 12 0 13 0;
#X connect 13 0 3 0;
#X connect 15 0 27 0;
#X connect 16 0 26 0;
#X connect 17 0 25 0;
#X connect 18 0 50 0;
#X connect 19 0 49 0;
#X connect 20 0 48 0;
#X connect 21 0 47 0;
#X connect 21 0 78 0;
#X connect 21 0 118 0;
#X connect 21 0 125 0;
#X connect 22 0 118 0;
#X connect 23 0 118 0;
#X connect 23 0 124 0;
#X connect 23 0 130 0;
#X connect 23 0 132 0;
#X connect 24 0 51 0;
#X connect 25 0 20 0;
#X connect 25 1 19 0;
#X connect 25 2 18 0;
#X connect 25 3 24 0;
#X connect 26 0 20 0;
#X connect 26 1 19 0;
#X connect 26 2 18 0;
#X connect 26 3 24 0;
#X connect 27 0 20 0;
#X connect 27 1 19 0;
#X connect 27 2 18 0;
#X connect 27 3 24 0;
#X connect 29 1 30 0;
#X connect 29 2 30 1;
#X connect 29 3 30 2;
#X connect 30 0 32 0;
#X connect 31 0 87 0;
#X connect 32 0 31 0;
#X connect 35 0 38 0;
#X connect 35 0 39 0;
#X connect 39 0 37 0;
#X connect 39 1 40 0;
#X connect 39 1 42 0;
#X connect 39 1 95 0;
#X connect 39 1 105 0;
#X connect 39 2 41 0;
#X connect 39 2 43 0;
#X connect 39 2 44 0;
#X connect 39 2 101 0;
#X connect 43 0 99 0;
#X connect 45 0 29 0;
#X connect 46 0 45 1;
#X connect 47 0 120 0;
#X connect 48 0 21 0;
#X connect 49 0 22 0;
#X connect 50 0 23 0;
#X connect 51 0 28 0;
#X connect 52 0 51 1;
#X connect 52 0 50 1;
#X connect 52 0 49 1;
#X connect 52 0 48 1;
#X connect 53 0 48 1;
#X connect 53 0 49 1;
#X connect 53 0 50 1;
#X connect 53 0 51 1;
#X connect 54 0 52 0;
#X connect 55 0 53 0;
#X connect 56 0 54 0;
#X connect 56 0 84 0;
#X connect 56 0 74 0;
#X connect 56 0 46 0;
#X connect 59 0 61 0;
#X connect 60 0 59 0;
#X connect 61 0 58 0;
#X connect 61 0 2 0;
#X connect 62 0 2 0;
#X connect 63 0 2 0;
#X connect 64 0 2 0;
#X connect 65 0 2 0;
#X connect 66 0 2 0;
#X connect 67 0 70 0;
#X connect 68 0 70 0;
#X connect 69 0 70 0;
#X connect 70 0 71 0;
#X connect 72 0 2 0;
#X connect 73 0 8 0;
#X connect 74 0 73 1;
#X connect 75 0 79 0;
#X connect 78 0 117 1;
#X connect 84 0 111 2;
#X connect 86 0 111 0;
#X connect 87 0 91 0;
#X connect 88 0 75 0;
#X connect 88 0 84 0;
#X connect 90 0 77 0;
#X connect 91 0 90 1;
#X connect 92 0 86 0;
#X connect 92 0 90 0;
#X connect 92 0 78 0;
#X connect 92 0 124 0;
#X connect 92 0 125 0;
#X connect 93 0 76 0;
#X connect 94 0 89 0;
#X connect 94 0 114 0;
#X connect 94 0 117 0;
#X connect 94 0 126 0;
#X connect 94 0 132 0;
#X connect 95 0 96 0;
#X connect 95 0 100 0;
#X connect 96 0 75 0;
#X connect 96 0 102 0;
#X connect 97 0 95 2;
#X connect 98 0 88 0;
#X connect 98 0 97 0;
#X connect 98 0 113 0;
#X connect 99 0 93 0;
#X connect 101 0 88 0;
#X connect 101 0 104 0;
#X connect 101 0 75 0;
#X connect 101 0 102 0;
#X connect 102 0 122 0;
#X connect 102 0 118 0;
#X connect 103 0 35 0;
#X connect 103 1 34 0;
#X connect 105 0 106 0;
#X connect 105 1 107 0;
#X connect 105 2 108 0;
#X connect 105 3 109 0;
#X connect 110 0 101 0;
#X connect 111 0 94 0;
#X connect 112 0 75 0;
#X connect 113 0 75 1;
#X connect 114 2 133 0;
#X connect 114 8 133 0;
#X connect 114 11 133 0;
#X connect 114 14 133 0;
#X connect 114 15 133 0;
#X connect 115 0 116 0;
#X connect 115 1 116 1;
#X connect 117 0 115 0;
#X connect 117 1 115 0;
#X connect 117 3 115 0;
#X connect 117 5 115 0;
#X connect 117 6 115 0;
#X connect 117 7 115 0;
#X connect 117 14 115 0;
#X connect 117 15 115 0;
#X connect 118 0 121 0;
#X connect 118 1 121 1;
#X connect 120 0 119 0;
#X connect 120 1 119 2;
#X connect 122 0 123 0;
#X connect 122 1 123 1;
#X connect 124 0 114 1;
#X connect 125 0 126 1;
#X connect 126 0 127 0;
#X connect 126 5 127 0;
#X connect 126 13 127 0;
#X connect 127 0 128 0;
#X connect 127 0 129 0;
#X connect 127 1 128 1;
#X connect 127 1 129 1;
#X connect 130 0 134 0;
#X connect 130 1 134 0;
#X connect 130 2 134 0;
#X connect 130 4 134 0;
#X connect 130 7 134 0;
#X connect 130 12 134 0;
#X connect 130 13 134 0;
#X connect 132 0 130 1;
#X connect 133 0 128 0;
#X connect 133 1 128 1;
#X connect 134 0 131 0;
#X connect 134 1 131 1;
